<svg width="21" height="21" viewBox="0 0 21 21" fill="none" xmlns="http://www.w3.org/2000/svg">
<g clip-path="url(#clip0_12_94)">
<path d="M19.841 21.0001C20.481 21.0001 21 20.4812 21 19.8411V1.15902C21 0.518848 20.481 0 19.841 0H1.15902C0.518766 0 0 0.518848 0 1.15902V19.8411C0 20.4812 0.518766 21.0001 1.15902 21.0001H19.841Z" fill="#395185"/>
<path d="M14.4896 21.0001V12.8677H17.2194L17.6281 9.69847H14.4896V7.67492C14.4896 6.75732 14.7445 6.132 16.0604 6.132L17.7386 6.13126V3.29667C17.4483 3.25803 16.4521 3.17174 15.2931 3.17174C12.8734 3.17174 11.2168 4.64871 11.2168 7.36116V9.69847H8.4801V12.8677H11.2168V21.0001H14.4896Z" fill="white"/>
</g>
<defs>
<clipPath id="clip0_12_94">
<rect width="21" height="21" fill="white"/>
</clipPath>
</defs>
</svg>
