<svg width="23" height="17" viewBox="0 0 23 17" fill="none" xmlns="http://www.w3.org/2000/svg">
<g clip-path="url(#clip0_12_108)">
<path d="M5.22729 16.9163V8.20404L2.47133 5.73217L0 4.36046V15.3788C0 16.2295 0.703027 16.9163 1.56822 16.9163H5.22729Z" fill="#4285F4"/>
<path d="M17.7727 16.9163H21.4318C22.2996 16.9163 23 16.227 23 15.3788V4.36054L20.2008 5.93168L17.7727 8.20404V16.9163Z" fill="#34A853"/>
<path d="M5.2273 8.20404L4.85229 4.7999L5.2273 1.5418L11.5 6.15417L17.7727 1.5418L18.1922 4.624L17.7727 8.20404L11.5 12.8164L5.2273 8.20404Z" fill="#EA4335"/>
<path d="M17.7727 1.54181V8.20404L23 4.36046V2.31051C23 0.409237 20.7862 -0.674624 19.2364 0.465609L17.7727 1.54181Z" fill="#FBBC04"/>
<path d="M0 4.36032L2.40413 6.12814L5.22729 8.2039V1.54166L3.76355 0.465467C2.21105 -0.674855 0 0.409094 0 2.31028V4.36023V4.36032Z" fill="#C5221F"/>
</g>
<defs>
<clipPath id="clip0_12_108">
<rect width="23" height="17" fill="white"/>
</clipPath>
</defs>
</svg>
