<svg width="33" height="33" viewBox="0 0 33 33" fill="none" xmlns="http://www.w3.org/2000/svg">
<path d="M28.2412 25.7091C29.7222 23.9272 30.7522 21.8148 31.2442 19.5506C31.7361 17.2865 31.6755 14.9371 31.0675 12.7013C30.4594 10.4655 29.3219 8.40906 27.751 6.70589C26.1801 5.00273 24.2221 3.70297 22.0426 2.91657C19.8631 2.13017 17.5263 1.88026 15.2298 2.18799C12.9334 2.49571 10.7448 3.35202 8.84924 4.68447C6.9537 6.01691 5.40696 7.7863 4.33987 9.84295C3.27278 11.8996 2.71673 14.183 2.71876 16.5C2.71953 19.8683 3.90649 23.1287 6.07135 25.7091L6.05072 25.7266C6.12291 25.8132 6.20541 25.8875 6.27966 25.9731C6.37247 26.0793 6.47251 26.1793 6.56841 26.2824C6.85716 26.5959 7.15416 26.8971 7.4656 27.1796C7.56047 27.2663 7.65844 27.3467 7.75435 27.4292C8.08435 27.7138 8.42363 27.984 8.77529 28.2356C8.82066 28.2666 8.86191 28.3068 8.90729 28.3388V28.3264C11.3226 30.0261 14.2039 30.9382 17.1573 30.9382C20.1107 30.9382 22.992 30.0261 25.4073 28.3264V28.3388C25.4527 28.3068 25.4929 28.2666 25.5393 28.2356C25.8899 27.983 26.2302 27.7138 26.5602 27.4292C26.6561 27.3467 26.7541 27.2652 26.849 27.1796C27.1604 26.896 27.4574 26.5959 27.7462 26.2824C27.8421 26.1793 27.9411 26.0793 28.0349 25.9731C28.1081 25.8875 28.1917 25.8132 28.2638 25.7256L28.2412 25.7091ZM17.1563 8.25001C18.0741 8.25001 18.9713 8.52218 19.7344 9.03209C20.4976 9.54201 21.0924 10.2668 21.4436 11.1147C21.7949 11.9627 21.8868 12.8958 21.7077 13.796C21.5287 14.6962 21.0867 15.523 20.4377 16.172C19.7887 16.8211 18.9618 17.263 18.0616 17.4421C17.1614 17.6211 16.2283 17.5292 15.3804 17.178C14.5324 16.8268 13.8076 16.232 13.2977 15.4688C12.7878 14.7057 12.5156 13.8085 12.5156 12.8906C12.5156 11.6599 13.0046 10.4795 13.8748 9.60922C14.7451 8.73893 15.9255 8.25001 17.1563 8.25001V8.25001ZM8.91347 25.7091C8.93136 24.355 9.48164 23.0624 10.4452 22.111C11.4089 21.1595 12.7083 20.6257 14.0625 20.625H20.25C21.6042 20.6257 22.9037 21.1595 23.8673 22.111C24.8309 23.0624 25.3811 24.355 25.399 25.7091C23.1373 27.7472 20.2008 28.8751 17.1563 28.8751C14.1117 28.8751 11.1752 27.7472 8.91347 25.7091V25.7091Z" fill="black"/>
</svg>
