<svg width="48" height="48" viewBox="0 0 48 48" fill="none" xmlns="http://www.w3.org/2000/svg">
<path fill-rule="evenodd" clip-rule="evenodd" d="M48 0H0V48H48V0ZM16.096 18.76C13.432 17.826 12.079 16.299 13.703 14.178C13.718 14.225 13.733 14.272 13.751 14.318C13.7929 14.4446 13.8597 14.5616 13.9476 14.6621C14.0354 14.7625 14.1424 14.8443 14.2623 14.9028C14.3823 14.9612 14.5127 14.995 14.6459 15.0023C14.7791 15.0096 14.9124 14.9901 15.038 14.9451C15.1635 14.9001 15.2788 14.8303 15.377 14.7401C15.4753 14.6498 15.5544 14.5408 15.6099 14.4194C15.6653 14.2981 15.6959 14.1669 15.6999 14.0336C15.7039 13.9002 15.6811 13.7674 15.633 13.643C15.505 13.287 15.456 12.769 15.545 12.14L15.565 12.12L15.589 11.98C15.841 10.641 16.629 9.113 18 7.935V12.48C18 12.7452 18.1054 12.9996 18.2929 13.1871C18.4804 13.3746 18.7348 13.48 19 13.48C19.2652 13.48 19.5196 13.3746 19.7071 13.1871C19.8946 12.9996 20 12.7452 20 12.48V6.69C20.9525 6.28804 21.9676 6.05457 23 6V10.48C23 10.7452 23.1054 10.9996 23.2929 11.1871C23.4804 11.3746 23.7348 11.48 24 11.48C24.2652 11.48 24.5196 11.3746 24.7071 11.1871C24.8946 10.9996 25 10.7452 25 10.48V6.058C25.64 6.131 26.24 6.253 26.797 6.417C27.221 6.542 27.622 6.692 28 6.862V12.48C28 12.7452 28.1054 12.9996 28.2929 13.1871C28.4804 13.3746 28.7348 13.48 29 13.48C29.2652 13.48 29.5196 13.3746 29.7071 13.1871C29.8946 12.9996 30 12.7452 30 12.48V8.112C31.404 9.29 32.226 10.785 32.442 12.137L32.459 12.15C32.539 12.72 32.496 13.236 32.352 13.65C32.3049 13.7748 32.2832 13.9077 32.2883 14.0409C32.2933 14.1742 32.3249 14.3051 32.3813 14.4259C32.4377 14.5467 32.5176 14.6551 32.6165 14.7446C32.7154 14.8341 32.8311 14.9029 32.957 14.947C33.0828 14.991 33.2162 15.0095 33.3493 15.0013C33.4824 14.993 33.6125 14.9583 33.7319 14.899C33.8514 14.8398 33.9578 14.7572 34.0449 14.6562C34.1319 14.5552 34.198 14.4379 34.239 14.311C34.256 14.2627 34.2721 14.214 34.287 14.165C35.927 16.293 34.573 17.825 31.904 18.76C32.0819 19.901 32.0107 21.067 31.6952 22.1779C31.3797 23.2887 30.8275 24.3181 30.0765 25.1953C29.3254 26.0725 28.3934 26.7768 27.3444 27.2596C26.2954 27.7424 25.1543 27.9924 23.9995 27.9924C22.8447 27.9924 21.7036 27.7424 20.6546 27.2596C19.6056 26.7768 18.6736 26.0725 17.9225 25.1953C17.1715 24.3181 16.6193 23.2887 16.3038 22.1779C15.9883 21.067 15.9171 19.901 16.095 18.76H16.096ZM18 20C18 19.768 18.013 19.539 18.039 19.314C21.655 20.044 26.345 20.044 29.961 19.314C30.054 20.1253 29.9803 20.947 29.7446 21.7289C29.5089 22.5107 29.1161 23.2363 28.5902 23.861C28.0643 24.4857 27.4164 24.9965 26.6862 25.3621C25.956 25.7277 25.1588 25.9404 24.3436 25.9871C23.5283 26.0339 22.712 25.9137 21.9448 25.634C21.1776 25.3543 20.4756 24.9209 19.8817 24.3604C19.2878 23.7999 18.8146 23.1241 18.4911 22.3743C18.1675 21.6245 18.0004 20.8166 18 20ZM19 28.49C13.013 29.535 6 32.203 6 36V42H42V36C42 32.203 34.987 29.535 29 28.49V33H19V28.49ZM13 42V33H15V42H13ZM34 33V42H36V33H34Z" fill="black"/>
</svg>
