<svg width="37" height="37" viewBox="0 0 37 37" fill="none" xmlns="http://www.w3.org/2000/svg">
<g clip-path="url(#clip0_17_31)">
<path d="M18.5 8.26834L22.3179 3.60172C22.3179 3.60172 28.8577 3.74047 35.3743 6.76984C33.7058 9.29278 30.3943 10.5277 30.3943 10.5277C30.1712 8.31112 28.6183 7.77 23.68 7.77L18.5012 37.0012L13.2865 7.76422C8.38397 7.76422 6.83113 8.3065 6.60797 10.5219C6.60797 10.5219 3.29531 9.29972 1.628 6.77563C8.14347 3.74625 14.6844 3.6075 14.6844 3.6075L18.5023 8.26834H18.4965H18.5ZM18.5 2.25816C23.7633 2.20959 29.7919 3.071 35.964 5.76853C36.7896 4.27466 37 3.61906 37 3.61906C30.2556 0.944656 23.9378 0.0242813 18.5 0C13.0622 0.0242813 6.74441 0.940031 0 3.61906C0 3.61906 0.300625 4.43191 1.036 5.77547C7.20922 3.06522 13.2367 2.21075 18.5 2.25237V2.25816Z" fill="black"/>
</g>
<defs>
<clipPath id="clip0_17_31">
<rect width="37" height="37" fill="white"/>
</clipPath>
</defs>
</svg>
