<svg width="22" height="18" viewBox="0 0 22 18" fill="none" xmlns="http://www.w3.org/2000/svg">
<path d="M22 2.19186C21.1762 2.55761 20.3024 2.79769 19.4076 2.90411C20.3396 2.34431 21.0552 1.45783 21.3922 0.401597C20.5062 0.928493 19.5369 1.29973 18.5261 1.49925C17.7027 0.620181 16.5297 0.0707932 15.2315 0.0707932C12.7388 0.0707932 10.7178 2.09609 10.7178 4.59405C10.7178 4.94862 10.7577 5.29381 10.8347 5.62496C7.08348 5.43626 3.7577 3.63548 1.53149 0.898793C1.14305 1.56686 0.920477 2.34396 0.920477 3.17282C0.920477 4.74218 1.71738 6.12663 2.92841 6.93784C2.21164 6.91534 1.51065 6.72133 0.883953 6.372C0.883695 6.39095 0.883695 6.40989 0.883695 6.42893C0.883695 8.62054 2.43951 10.4488 4.50424 10.8643C3.83959 11.0455 3.14242 11.072 2.46598 10.9418C3.0403 12.7389 4.70723 14.0466 6.68224 14.0832C5.13752 15.2964 3.19129 16.0196 1.07671 16.0196C0.712336 16.0196 0.353117 15.9981 0 15.9564C1.99745 17.2398 4.36992 17.9886 6.91883 17.9886C15.221 17.9886 19.7608 11.096 19.7608 5.11863C19.7608 4.92244 19.7565 4.72737 19.7478 4.53342C20.6314 3.89324 21.3941 3.10032 22 2.19186Z" fill="#55ACEE"/>
</svg>
